<svg width="19" height="19" viewBox="0 0 19 19" fill="none" xmlns="http://www.w3.org/2000/svg">
<path d="M11.0833 18.167C10.7361 18.167 10.441 18.0455 10.1979 17.8024C9.95486 17.5594 9.83333 17.2642 9.83333 16.917V11.0837C9.83333 10.7364 9.95486 10.4413 10.1979 10.1982C10.441 9.95519 10.7361 9.83366 11.0833 9.83366H16.9167C17.2639 9.83366 17.559 9.95519 17.8021 10.1982C18.0451 10.4413 18.1667 10.7364 18.1667 11.0837V16.917C18.1667 17.2642 18.0451 17.5594 17.8021 17.8024C17.559 18.0455 17.2639 18.167 16.9167 18.167H11.0833ZM11.0833 16.917H16.9167V16.2503C16.5694 15.8198 16.1458 15.476 15.6458 15.2191C15.1458 14.9621 14.5972 14.8337 14 14.8337C13.4028 14.8337 12.8542 14.9621 12.3542 15.2191C11.8542 15.476 11.4306 15.8198 11.0833 16.2503V16.917ZM14 14.0003C14.3472 14.0003 14.6424 13.8788 14.8854 13.6357C15.1285 13.3927 15.25 13.0975 15.25 12.7503C15.25 12.4031 15.1285 12.108 14.8854 11.8649C14.6424 11.6219 14.3472 11.5003 14 11.5003C13.6528 11.5003 13.3576 11.6219 13.1146 11.8649C12.8715 12.108 12.75 12.4031 12.75 12.7503C12.75 13.0975 12.8715 13.3927 13.1146 13.6357C13.3576 13.8788 13.6528 14.0003 14 14.0003ZM9.04167 6.08366C8.23611 6.08366 7.54861 6.36838 6.97917 6.93783C6.40972 7.50727 6.125 8.19477 6.125 9.00033C6.125 9.66699 6.3125 10.2503 6.6875 10.7503C7.0625 11.2503 7.55556 11.5975 8.16667 11.792V9.91699C8.05556 9.80588 7.96528 9.66352 7.89583 9.48991C7.82639 9.3163 7.79167 9.1531 7.79167 9.00033C7.79167 8.6531 7.9132 8.35796 8.15625 8.11491C8.39931 7.87185 8.69445 7.75033 9.04167 7.75033C9.23611 7.75033 9.40972 7.78852 9.5625 7.86491C9.71528 7.9413 9.84722 8.04199 9.95833 8.16699H11.8333C11.6528 7.55588 11.309 7.05588 10.8021 6.66699C10.2951 6.2781 9.70834 6.08366 9.04167 6.08366ZM6.70833 17.3337L6.375 14.667C6.19445 14.5975 6.02431 14.5142 5.86458 14.417C5.70486 14.3198 5.54861 14.2156 5.39583 14.1045L2.91667 15.1462L0.625 11.1878L2.77083 9.56283C2.75694 9.4656 2.75 9.37185 2.75 9.28158V8.71908C2.75 8.6288 2.75694 8.53505 2.77083 8.43783L0.625 6.81283L2.91667 2.85449L5.39583 3.89616C5.54861 3.78505 5.70833 3.68088 5.875 3.58366C6.04167 3.48644 6.20833 3.4031 6.375 3.33366L6.70833 0.666992H11.2917L11.625 3.33366C11.8056 3.4031 11.9757 3.48644 12.1354 3.58366C12.2951 3.68088 12.4514 3.78505 12.6042 3.89616L15.0833 2.85449L17.375 6.81283L15.6042 8.16699H13.5C13.4861 8.09755 13.4722 8.02463 13.4583 7.94824C13.4444 7.87185 13.4236 7.79894 13.3958 7.72949L15.1875 6.37533L14.375 4.95866L12.3125 5.83366C12.0069 5.51421 11.6701 5.24685 11.3021 5.03158C10.934 4.8163 10.5347 4.6531 10.1042 4.54199L9.83333 2.33366H8.1875L7.89583 4.54199C7.46528 4.6531 7.06597 4.8163 6.69792 5.03158C6.32986 5.24685 5.99306 5.50727 5.6875 5.81283L3.625 4.95866L2.8125 6.37533L4.60417 7.70866C4.53472 7.91699 4.48611 8.12533 4.45833 8.33366C4.43056 8.54199 4.41667 8.76421 4.41667 9.00033C4.41667 9.22255 4.43056 9.43783 4.45833 9.64616C4.48611 9.85449 4.53472 10.0628 4.60417 10.2712L2.8125 11.6253L3.625 13.042L5.6875 12.167C6.02083 12.5142 6.39583 12.8059 6.8125 13.042C7.22917 13.2781 7.68056 13.4309 8.16667 13.5003V17.3337H6.70833Z" fill="#1C1B1F"/>
</svg>
