<svg width="24" height="24" viewBox="0 0 24 24" fill="none" xmlns="http://www.w3.org/2000/svg">
<path d="M21.2956 7.57969H15.7156C15.3256 7.57969 15.0156 7.26969 15.0156 6.87969C15.0156 6.48969 15.3256 6.17969 15.7156 6.17969H21.2956C21.6856 6.17969 21.9956 6.48969 21.9956 6.87969C21.9956 7.26969 21.6856 7.57969 21.2956 7.57969Z" fill="#1D4ED8"/>
<path d="M6.42 7.57969H2.7C2.31 7.57969 2 7.26969 2 6.87969C2 6.48969 2.31 6.17969 2.7 6.17969H6.42C6.81 6.17969 7.12 6.48969 7.12 6.87969C7.12 7.26969 6.8 7.57969 6.42 7.57969Z" fill="#1D4ED8"/>
<path d="M10.1375 10.8297C12.319 10.8297 14.0875 9.06121 14.0875 6.87969C14.0875 4.69816 12.319 2.92969 10.1375 2.92969C7.95598 2.92969 6.1875 4.69816 6.1875 6.87969C6.1875 9.06121 7.95598 10.8297 10.1375 10.8297Z" fill="#1D4ED8"/>
<path d="M21.295 17.8102H17.575C17.185 17.8102 16.875 17.5002 16.875 17.1102C16.875 16.7202 17.185 16.4102 17.575 16.4102H21.295C21.685 16.4102 21.995 16.7202 21.995 17.1102C21.995 17.5002 21.685 17.8102 21.295 17.8102Z" fill="#1D4ED8"/>
<path d="M8.28 17.8102H2.7C2.31 17.8102 2 17.5002 2 17.1102C2 16.7202 2.31 16.4102 2.7 16.4102H8.28C8.67 16.4102 8.98 16.7202 8.98 17.1102C8.98 17.5002 8.66 17.8102 8.28 17.8102Z" fill="#1D4ED8"/>
<path d="M13.8562 21.0699C16.0378 21.0699 17.8062 19.3014 17.8062 17.1199C17.8062 14.9384 16.0378 13.1699 13.8562 13.1699C11.6747 13.1699 9.90625 14.9384 9.90625 17.1199C9.90625 19.3014 11.6747 21.0699 13.8562 21.0699Z" fill="#1D4ED8"/>
</svg>
