<svg width="24" height="24" viewBox="0 0 24 24" fill="none" xmlns="http://www.w3.org/2000/svg">
<path d="M20.1873 14.0608L19.0573 12.1808C18.8073 11.7708 18.5873 10.9808 18.5873 10.5008V8.63078C18.5873 5.00078 15.6373 2.05078 12.0173 2.05078C8.38727 2.06078 5.43727 5.00078 5.43727 8.63078V10.4908C5.43727 10.9708 5.21727 11.7608 4.97727 12.1708L3.84727 14.0508C3.41727 14.7808 3.31727 15.6108 3.58727 16.3308C3.85727 17.0608 4.46727 17.6408 5.26727 17.9008C6.34727 18.2608 7.43727 18.5208 8.54727 18.7108C8.65727 18.7308 8.76727 18.7408 8.87727 18.7608C9.01727 18.7808 9.16727 18.8008 9.31727 18.8208C9.57727 18.8608 9.83727 18.8908 10.1073 18.9108C10.7373 18.9708 11.3773 19.0008 12.0173 19.0008C12.6473 19.0008 13.2773 18.9708 13.8973 18.9108C14.1273 18.8908 14.3573 18.8708 14.5773 18.8408C14.7573 18.8208 14.9373 18.8008 15.1173 18.7708C15.2273 18.7608 15.3373 18.7408 15.4473 18.7208C16.5673 18.5408 17.6773 18.2608 18.7573 17.9008C19.5273 17.6408 20.1173 17.0608 20.3973 16.3208C20.6773 15.5708 20.5973 14.7508 20.1873 14.0608ZM12.7473 10.0008C12.7473 10.4208 12.4073 10.7608 11.9873 10.7608C11.5673 10.7608 11.2273 10.4208 11.2273 10.0008V6.90078C11.2273 6.48078 11.5673 6.14078 11.9873 6.14078C12.4073 6.14078 12.7473 6.48078 12.7473 6.90078V10.0008Z" fill="#1D4ED8"/>
<path d="M14.8297 20.01C14.4097 21.17 13.2997 22 11.9997 22C11.2097 22 10.4297 21.68 9.87969 21.11C9.55969 20.81 9.31969 20.41 9.17969 20C9.30969 20.02 9.43969 20.03 9.57969 20.05C9.80969 20.08 10.0497 20.11 10.2897 20.13C10.8597 20.18 11.4397 20.21 12.0197 20.21C12.5897 20.21 13.1597 20.18 13.7197 20.13C13.9297 20.11 14.1397 20.1 14.3397 20.07C14.4997 20.05 14.6597 20.03 14.8297 20.01Z" fill="#1D4ED8"/>
</svg>
