<svg width="24" height="24" viewBox="0 0 24 24" fill="none" xmlns="http://www.w3.org/2000/svg">
<path d="M18.9381 5.41945L13.7681 2.42945C12.7781 1.85945 11.2281 1.85945 10.2381 2.42945L5.01813 5.43945C2.94813 6.83945 2.82812 7.04945 2.82812 9.27945V14.7095C2.82812 16.9395 2.94813 17.1595 5.05813 18.5795L10.2281 21.5695C10.7281 21.8595 11.3681 21.9995 11.9981 21.9995C12.6281 21.9995 13.2681 21.8595 13.7581 21.5695L18.9781 18.5595C21.0481 17.1595 21.1681 16.9495 21.1681 14.7195V9.27945C21.1681 7.04945 21.0481 6.83945 18.9381 5.41945ZM11.9981 15.2495C10.2081 15.2495 8.74813 13.7895 8.74813 11.9995C8.74813 10.2095 10.2081 8.74945 11.9981 8.74945C13.7881 8.74945 15.2481 10.2095 15.2481 11.9995C15.2481 13.7895 13.7881 15.2495 11.9981 15.2495Z" fill="#1D4ED8"/>
</svg>
