<svg width="30" height="16" viewBox="0 0 30 16" fill="none" xmlns="http://www.w3.org/2000/svg">
<path d="M0 15.5V13.5312C0 12.6354 0.458333 11.9062 1.375 11.3438C2.29167 10.7812 3.5 10.5 5 10.5C5.27083 10.5 5.53125 10.5052 5.78125 10.5156C6.03125 10.526 6.27083 10.5521 6.5 10.5938C6.20833 11.0312 5.98958 11.4896 5.84375 11.9688C5.69792 12.4479 5.625 12.9479 5.625 13.4688V15.5H0ZM7.5 15.5V13.4688C7.5 12.8021 7.68229 12.1927 8.04688 11.6406C8.41146 11.0885 8.92708 10.6042 9.59375 10.1875C10.2604 9.77083 11.0573 9.45833 11.9844 9.25C12.9115 9.04167 13.9167 8.9375 15 8.9375C16.1042 8.9375 17.1198 9.04167 18.0469 9.25C18.974 9.45833 19.7708 9.77083 20.4375 10.1875C21.1042 10.6042 21.6146 11.0885 21.9688 11.6406C22.3229 12.1927 22.5 12.8021 22.5 13.4688V15.5H7.5ZM24.375 15.5V13.4688C24.375 12.9271 24.3073 12.4167 24.1719 11.9375C24.0365 11.4583 23.8333 11.0104 23.5625 10.5938C23.7917 10.5521 24.026 10.526 24.2656 10.5156C24.5052 10.5052 24.75 10.5 25 10.5C26.5 10.5 27.7083 10.776 28.625 11.3281C29.5417 11.8802 30 12.6146 30 13.5312V15.5H24.375ZM5 9.25C4.3125 9.25 3.72396 9.00521 3.23438 8.51562C2.74479 8.02604 2.5 7.4375 2.5 6.75C2.5 6.04167 2.74479 5.44792 3.23438 4.96875C3.72396 4.48958 4.3125 4.25 5 4.25C5.70833 4.25 6.30208 4.48958 6.78125 4.96875C7.26042 5.44792 7.5 6.04167 7.5 6.75C7.5 7.4375 7.26042 8.02604 6.78125 8.51562C6.30208 9.00521 5.70833 9.25 5 9.25ZM25 9.25C24.3125 9.25 23.724 9.00521 23.2344 8.51562C22.7448 8.02604 22.5 7.4375 22.5 6.75C22.5 6.04167 22.7448 5.44792 23.2344 4.96875C23.724 4.48958 24.3125 4.25 25 4.25C25.7083 4.25 26.3021 4.48958 26.7813 4.96875C27.2604 5.44792 27.5 6.04167 27.5 6.75C27.5 7.4375 27.2604 8.02604 26.7813 8.51562C26.3021 9.00521 25.7083 9.25 25 9.25ZM15 8C13.9583 8 13.0729 7.63542 12.3438 6.90625C11.6146 6.17708 11.25 5.29167 11.25 4.25C11.25 3.1875 11.6146 2.29688 12.3438 1.57812C13.0729 0.859375 13.9583 0.5 15 0.5C16.0625 0.5 16.9531 0.859375 17.6719 1.57812C18.3906 2.29688 18.75 3.1875 18.75 4.25C18.75 5.29167 18.3906 6.17708 17.6719 6.90625C16.9531 7.63542 16.0625 8 15 8Z" fill="#1D4ED8"/>
</svg>
