<svg width="16" height="16" viewBox="0 0 16 16" fill="none" xmlns="http://www.w3.org/2000/svg">
<path d="M14.4468 4.63335C14.0201 3.18668 12.8134 1.98002 11.3668 1.55335C10.2668 1.23335 9.50677 1.26002 8.9801 1.65335C8.34677 2.12668 8.27344 2.98002 8.27344 3.58668V5.24668C8.27344 6.88668 9.0201 7.72002 10.4868 7.72002H12.4001C13.0001 7.72002 13.8601 7.64668 14.3334 7.01335C14.7401 6.49335 14.7734 5.73335 14.4468 4.63335Z" fill="#1D4ED8"/>
<path d="M12.6076 8.90664C12.4342 8.70664 12.1809 8.59331 11.9209 8.59331H9.53424C8.36091 8.59331 7.40757 7.63998 7.40757 6.46664V4.07998C7.40757 3.81998 7.29424 3.56664 7.09424 3.39331C6.90091 3.21998 6.63424 3.13998 6.38091 3.17331C4.81424 3.37331 3.37424 4.23331 2.43424 5.52664C1.48758 6.82664 1.14091 8.41331 1.44091 9.99998C1.87424 12.2933 3.70758 14.1266 6.00758 14.56C6.37424 14.6333 6.74091 14.6666 7.10757 14.6666C8.31424 14.6666 9.48091 14.2933 10.4742 13.5666C11.7676 12.6266 12.6276 11.1866 12.8276 9.61998C12.8609 9.35998 12.7809 9.09998 12.6076 8.90664Z" fill="#1D4ED8"/>
</svg>
