<svg width="16" height="16" viewBox="0 0 16 16" fill="none" xmlns="http://www.w3.org/2000/svg">
<path d="M6.0026 14.6666H10.0026C13.3359 14.6666 14.6693 13.3333 14.6693 9.99992V5.99992C14.6693 2.66659 13.3359 1.33325 10.0026 1.33325H6.0026C2.66927 1.33325 1.33594 2.66659 1.33594 5.99992V9.99992C1.33594 13.3333 2.66927 14.6666 6.0026 14.6666Z" stroke="#18181B" stroke-width="1.5" stroke-linecap="round" stroke-linejoin="round"/>
<path d="M10.3828 12.3334V9.7334" stroke="#18181B" stroke-width="1.5" stroke-miterlimit="10" stroke-linecap="round" stroke-linejoin="round"/>
<path d="M10.3828 4.96675V3.66675" stroke="#18181B" stroke-width="1.5" stroke-miterlimit="10" stroke-linecap="round" stroke-linejoin="round"/>
<path d="M10.3818 8.43322C11.3391 8.43322 12.1151 7.65718 12.1151 6.69989C12.1151 5.74259 11.3391 4.96655 10.3818 4.96655C9.42448 4.96655 8.64844 5.74259 8.64844 6.69989C8.64844 7.65718 9.42448 8.43322 10.3818 8.43322Z" stroke="#18181B" stroke-width="1.5" stroke-miterlimit="10" stroke-linecap="round" stroke-linejoin="round"/>
<path d="M5.61719 12.3334V11.0334" stroke="#18181B" stroke-width="1.5" stroke-miterlimit="10" stroke-linecap="round" stroke-linejoin="round"/>
<path d="M5.61719 6.26675V3.66675" stroke="#18181B" stroke-width="1.5" stroke-miterlimit="10" stroke-linecap="round" stroke-linejoin="round"/>
<path d="M5.61615 11.0333C6.57344 11.0333 7.34948 10.2573 7.34948 9.29998C7.34948 8.34269 6.57344 7.56665 5.61615 7.56665C4.65885 7.56665 3.88281 8.34269 3.88281 9.29998C3.88281 10.2573 4.65885 11.0333 5.61615 11.0333Z" stroke="#18181B" stroke-width="1.5" stroke-miterlimit="10" stroke-linecap="round" stroke-linejoin="round"/>
</svg>
