<svg width="24" height="24" viewBox="0 0 24 24" fill="none" xmlns="http://www.w3.org/2000/svg">
<path d="M22 4.84969V16.7397C22 17.7097 21.21 18.5997 20.24 18.7197L19.93 18.7597C18.29 18.9797 15.98 19.6597 14.12 20.4397C13.47 20.7097 12.75 20.2197 12.75 19.5097V5.59969C12.75 5.22969 12.96 4.88969 13.29 4.70969C15.12 3.71969 17.89 2.83969 19.77 2.67969H19.83C21.03 2.67969 22 3.64969 22 4.84969Z" fill="#1D4ED8"/>
<path d="M10.7044 4.70969C8.87438 3.71969 6.10437 2.83969 4.22438 2.67969H4.15437C2.95437 2.67969 1.98438 3.64969 1.98438 4.84969V16.7397C1.98438 17.7097 2.77437 18.5997 3.74437 18.7197L4.05437 18.7597C5.69438 18.9797 8.00437 19.6597 9.86438 20.4397C10.5144 20.7097 11.2344 20.2197 11.2344 19.5097V5.59969C11.2344 5.21969 11.0344 4.88969 10.7044 4.70969ZM4.99437 7.73969H7.24438C7.65438 7.73969 7.99438 8.07969 7.99438 8.48969C7.99438 8.90969 7.65438 9.23969 7.24438 9.23969H4.99437C4.58437 9.23969 4.24437 8.90969 4.24437 8.48969C4.24437 8.07969 4.58437 7.73969 4.99437 7.73969ZM7.99438 12.2397H4.99437C4.58437 12.2397 4.24437 11.9097 4.24437 11.4897C4.24437 11.0797 4.58437 10.7397 4.99437 10.7397H7.99438C8.40438 10.7397 8.74438 11.0797 8.74438 11.4897C8.74438 11.9097 8.40438 12.2397 7.99438 12.2397Z" fill="#1D4ED8"/>
</svg>
