<svg width="16" height="16" viewBox="0 0 16 16" fill="none" xmlns="http://www.w3.org/2000/svg">
<mask id="mask0_2141_59318" style="mask-type:alpha" maskUnits="userSpaceOnUse" x="0" y="0" width="16" height="16">
<rect width="16" height="16" fill="#D9D9D9"/>
</mask>
<g mask="url(#mask0_2141_59318)">
<path d="M1.33594 13.3327V11.466C1.33594 11.0882 1.43038 10.741 1.61927 10.4243C1.80816 10.1077 2.06927 9.86602 2.4026 9.69935C3.06927 9.36602 3.76094 9.11046 4.4776 8.93268C5.19427 8.75491 5.92483 8.66602 6.66927 8.66602C6.94705 8.66602 7.22483 8.68546 7.5026 8.72435C7.78038 8.76324 8.05816 8.81046 8.33594 8.86602V9.91602C7.83594 10.1605 7.43316 10.4827 7.1276 10.8827C6.82205 11.2827 6.66927 11.8049 6.66927 12.4493V13.3327H1.33594ZM8.0026 13.3327V12.3993C8.0026 12.1327 8.07205 11.8855 8.21094 11.6577C8.34983 11.4299 8.54705 11.266 8.8026 11.166C9.2026 10.9993 9.61649 10.8743 10.0443 10.791C10.472 10.7077 10.9026 10.666 11.3359 10.666C11.7693 10.666 12.1998 10.7077 12.6276 10.791C13.0554 10.8743 13.4693 10.9993 13.8693 11.166C14.1248 11.266 14.322 11.4299 14.4609 11.6577C14.5998 11.8855 14.6693 12.1327 14.6693 12.3993V13.3327H8.0026ZM11.3359 9.99935C10.8693 9.99935 10.4748 9.83824 10.1526 9.51602C9.83038 9.19379 9.66927 8.79935 9.66927 8.33268C9.66927 7.86602 9.83038 7.47157 10.1526 7.14935C10.4748 6.82713 10.8693 6.66602 11.3359 6.66602C11.8026 6.66602 12.197 6.82713 12.5193 7.14935C12.8415 7.47157 13.0026 7.86602 13.0026 8.33268C13.0026 8.79935 12.8415 9.19379 12.5193 9.51602C12.197 9.83824 11.8026 9.99935 11.3359 9.99935ZM6.66927 7.99935C5.93594 7.99935 5.30816 7.73824 4.78594 7.21602C4.26372 6.69379 4.0026 6.06602 4.0026 5.33268C4.0026 4.59935 4.26372 3.97157 4.78594 3.44935C5.30816 2.92713 5.93594 2.66602 6.66927 2.66602C7.4026 2.66602 8.03038 2.92713 8.5526 3.44935C9.07483 3.97157 9.33594 4.59935 9.33594 5.33268C9.33594 6.06602 9.07483 6.69379 8.5526 7.21602C8.03038 7.73824 7.4026 7.99935 6.66927 7.99935Z" fill="#1D4ED8"/>
</g>
</svg>
