<svg width="16" height="16" viewBox="0 0 16 16" fill="none" xmlns="http://www.w3.org/2000/svg">
<mask id="mask0_2891_25886" style="mask-type:alpha" maskUnits="userSpaceOnUse" x="0" y="0" width="16" height="16">
<rect width="16" height="16" fill="#D9D9D9"/>
</mask>
<g mask="url(#mask0_2891_25886)">
<path d="M11.3359 9.99999C10.8693 9.99999 10.4748 9.83888 10.1526 9.51666C9.83038 9.19443 9.66927 8.79999 9.66927 8.33332C9.66927 7.86666 9.83038 7.47221 10.1526 7.14999C10.4748 6.82777 10.8693 6.66666 11.3359 6.66666C11.8026 6.66666 12.197 6.82777 12.5193 7.14999C12.8415 7.47221 13.0026 7.86666 13.0026 8.33332C13.0026 8.79999 12.8415 9.19443 12.5193 9.51666C12.197 9.83888 11.8026 9.99999 11.3359 9.99999ZM8.0026 13.3333V12.4C8.0026 12.1333 8.07205 11.8861 8.21094 11.6583C8.34983 11.4305 8.54705 11.2667 8.8026 11.1667C9.2026 11 9.61649 10.875 10.0443 10.7917C10.472 10.7083 10.9026 10.6667 11.3359 10.6667C11.7693 10.6667 12.1998 10.7083 12.6276 10.7917C13.0554 10.875 13.4693 11 13.8693 11.1667C14.1248 11.2667 14.322 11.4305 14.4609 11.6583C14.5998 11.8861 14.6693 12.1333 14.6693 12.4V13.3333H8.0026ZM6.66927 7.99999C5.93594 7.99999 5.30816 7.73888 4.78594 7.21666C4.26372 6.69443 4.0026 6.06666 4.0026 5.33332C4.0026 4.59999 4.26372 3.97221 4.78594 3.44999C5.30816 2.92777 5.93594 2.66666 6.66927 2.66666C7.4026 2.66666 8.03038 2.92777 8.5526 3.44999C9.07483 3.97221 9.33594 4.59999 9.33594 5.33332C9.33594 6.06666 9.07483 6.69443 8.5526 7.21666C8.03038 7.73888 7.4026 7.99999 6.66927 7.99999ZM1.33594 13.3333V11.4667C1.33594 11.0889 1.43038 10.7417 1.61927 10.425C1.80816 10.1083 2.06927 9.86666 2.4026 9.69999C3.06927 9.36666 3.76094 9.1111 4.4776 8.93332C5.19427 8.75555 5.92483 8.66666 6.66927 8.66666C7.05816 8.66666 7.44705 8.69999 7.83594 8.76666C8.22483 8.83332 8.61371 8.9111 9.0026 8.99999L7.86927 10.1333C7.66927 10.0778 7.46927 10.0417 7.26927 10.025C7.06927 10.0083 6.86927 9.99999 6.66927 9.99999C6.02483 9.99999 5.39427 10.0778 4.7776 10.2333C4.16094 10.3889 3.56927 10.6111 3.0026 10.9C2.89149 10.9555 2.80816 11.0333 2.7526 11.1333C2.69705 11.2333 2.66927 11.3444 2.66927 11.4667V12H6.66927V13.3333H1.33594ZM6.66927 6.66666C7.03594 6.66666 7.34983 6.5361 7.61094 6.27499C7.87205 6.01388 8.0026 5.69999 8.0026 5.33332C8.0026 4.96666 7.87205 4.65277 7.61094 4.39166C7.34983 4.13055 7.03594 3.99999 6.66927 3.99999C6.3026 3.99999 5.98872 4.13055 5.7276 4.39166C5.46649 4.65277 5.33594 4.96666 5.33594 5.33332C5.33594 5.69999 5.46649 6.01388 5.7276 6.27499C5.98872 6.5361 6.3026 6.66666 6.66927 6.66666Z" fill="#18181B"/>
</g>
</svg>
